v -0.200000 -0.024910 -0.335556
v -0.400000 -0.024910 0.000000
v -0.200000 -0.024910 0.335556
v -0.200000 0.024910 -0.335556
v -0.400000 0.024910 0.000000
v -0.200000 0.024910 0.335556
v 0.200000 0.024910 -0.335556
v 0.400000 0.024910 0.000000
v 0.200000 0.024910 0.335556
v 0.200000 -0.024910 -0.335556
v 0.400000 -0.024910 0.000000
v 0.200000 -0.024910 0.335556
vt 0.622466 0.962418
vt 0.759590 0.731331
vt 0.789047 0.748808
vt 0.651955 0.979909
vt 0.621636 0.500737
vt 0.651059 0.483142
vt 0.788986 0.713744
vt 0.620314 0.004734
vt 0.758526 0.235188
vt 0.208241 0.236672
vt 0.345171 0.005499
vt 0.621559 0.466412
vt 0.346417 0.467078
vt 0.317894 0.980499
vt 0.179919 0.749924
vt 0.209316 0.732333
vt 0.347310 0.962895
vt 0.179838 0.714832
vt 0.317043 0.483797
vt 0.346495 0.501293
vt 0.622515 0.996702
vt 0.347373 0.997148
vn -0.428217 -0.498509 -0.753737
vn -0.651601 -0.758562 0.000000
vn -0.651601 0.758562 0.000000
vn -0.428217 0.498509 -0.753737
vn -0.428217 -0.498509 0.753737
vn -0.428217 0.498509 0.753737
vn 0.651601 0.758562 0.000000
vn 0.428217 0.498509 -0.753737
vn 0.428217 0.498509 0.753737
vn 0.651601 -0.758562 0.000000
vn 0.428217 -0.498509 -0.753737
vn 0.428217 -0.498509 0.753737
s 1
f 1/1/1 2/2/2 5/3/3 4/4/4
f 2/2/2 3/5/5 6/6/6 5/7/3
f 4/8/4 5/9/3 8/10/7 7/11/8
f 5/9/3 6/12/6 9/13/9 8/10/7
f 7/14/8 8/15/7 11/16/10 10/17/11
f 8/18/7 9/19/9 12/20/12 11/16/10
f 10/17/11 11/16/10 2/2/2 1/1/1
f 11/16/10 12/20/12 3/5/5 2/2/2
f 3/5/5 12/20/12 9/13/9 6/12/6
f 10/17/11 1/1/1 4/21/4 7/22/8